Simulation
nRows=35
nColumns=15
endheader
time  TH_x TH_y TH_z SC_y  SC_z  SC_x  AC_y  AC_z  AC_x  GH_y  GH_z  GH_yy  EL_x  PS_y
2.8725  0.000000  0.000000  0.000000  -33.337070470635815  -6.525735769357231  14.096616084558121  49.31898975922513  -23.478688794364903  -4.835381384161552  -19.553238120142353  31.383608720475753  16.543720370762937  14.071597203918449  120.000000
2.92995  0.000000  0.000000  0.000000  -33.44007304569054  -6.370486621171699  15.949596310474002  48.85214299322562  -24.41834584139352  -6.263414181398291  -18.561196132593384  29.416522748242855  18.714492693975888  14.438797922169725  120.000000
2.9874  0.000000  0.000000  0.000000  -33.55485570062274  -6.219129014557185  17.43890539347471  48.5336895756356  -25.15814479705638  -7.33765351889183  -17.499196823708743  27.777542437495953  20.280525616615332  14.888849879908868  120.000000
3.0448500000000003  0.000000  0.000000  0.000000  -33.66773374502001  -6.069139531809252  18.577314700480162  48.33748936330344  -25.710112400050217  -8.092335384271644  -16.44540634763383  26.44098713931363  21.275481684663838  15.378441882606815  120.000000
3.1023  0.000000  0.000000  0.000000  -33.772107229594084  -5.914443434633526  19.4011867564193  48.2372921692726  -26.088385388371552  -8.577207796078051  -15.480645731101681  25.38168164801658  21.80914273224524  15.865408077359556  120.000000
3.15975  0.000000  0.000000  0.000000  -33.868687011558464  -5.750511966183065  19.96320217346882  48.2085437717106  -26.313844882662973  -8.849706837146844  -14.668455439714585  24.575559088282517  22.02518154699894  16.319169095410285  120.000000
3.2172  0.000000  0.000000  0.000000  -33.9588769846853  -5.579246539127225  20.325065558185486  48.227954740093175  -26.41838535400306  -8.970059570995872  -14.039976004079513  23.996748019703137  22.064829693080167  16.728042579848996  120.000000
3.2746500000000003  0.000000  0.000000  0.000000  -34.04085772621518  -5.410986131568165  20.551789380943728  48.27154274402408  -26.447551908535615  -8.997286199658651  -13.581598525724088  23.61477846356241  22.03526612890864  17.098872502157665  120.000000
3.3321  0.000000  0.000000  0.000000  -34.10853992790135  -5.263324578392865  20.702493081983715  48.31621224859733  -26.44886380659082  -8.987815388539232  -13.24079070838416  23.391508630303385  21.997443705826303  17.44917730493926  120.000000
3.38955  0.000000  0.000000  0.000000  -34.1572150179729  -5.153464902543545  20.813905690851783  48.3509770839357  -26.448802287527222  -8.978390621570487  -12.954054454879842  23.279489040678623  21.977709050033116  17.79658583137449  120.000000
3.447  0.000000  0.000000  0.000000  -34.18805900081349  -5.087222576602208  20.89841629713159  48.38058607563243  -26.451620177064306  -8.975375152205576  -12.673504049936623  23.230048953245156  21.983657465043844  18.15151132709194  120.000000
3.5044500000000003  0.000000  0.000000  0.000000  -34.20723456322286  -5.0568909786053045  20.958795507068324  48.41408171318611  -26.453936139462026  -8.96927044891376  -12.375069470275994  23.20448133267543  22.012499720131487  18.516416386921563  120.000000
3.5619  0.000000  0.000000  0.000000  -34.22372411157746  -5.044276391614887  20.992873801772376  48.46196753655522  -26.448791581769136  -8.940875368546672  -12.061633750208443  23.176943436553046  22.063127989151507  18.888382676012395  120.000000
3.61935  0.000000  0.000000  0.000000  -34.24649810751198  -5.026631500250312  20.9939801852077  48.5359070403871  -26.426382819051593  -8.864845229050136  -11.756998244820602  23.132818004329387  22.142665844934903  19.262910988549983  120.000000
3.6768  0.000000  0.000000  0.000000  -34.28165379513807  -4.984812853424487  20.95416354001876  48.64448508003171  -26.377835091899858  -8.719340957762196  -11.489819075257692  23.066747916605436  22.26106171255999  19.636999918643077  120.000000
3.7342500000000003  0.000000  0.000000  0.000000  -34.33128718575472  -4.907924490537858  20.863357130063925  48.79284747723454  -26.296039710216885  -8.488039435841905  -11.283901663379714  22.980686052498115  22.427940189764172  20.010138652248674  120.000000
3.7917  0.000000  0.000000  0.000000  -34.394032499789695  -4.795350343900942  20.70757788586086  48.98418323714417  -26.173062698762365  -8.159865848644476  -11.15402340593573  22.883223447219418  22.651098458714802  20.383653193690396  120.000000
3.84915  0.000000  0.000000  0.000000  -34.46563346679687  -4.655820226261993  20.46917754313482  49.220567404089685  -25.999210718401226  -7.72835455510066  -11.10881664930046  22.79152234245602  22.94048851664979  20.75940047619172  120.000000
3.9066  0.000000  0.000000  0.000000  -34.54008091723379  -4.503562836303669  20.129223814740104  49.502955249414214  -25.76756947618433  -7.188819650809137  -11.157823267411583  22.73633721285545  23.31451075186219  21.137625482906767  120.000000
3.9640500000000003  0.000000  0.000000  0.000000  -34.61050720199871  -4.355350932050856  19.668799095938837  49.831000099981885  -25.476360670203977  -6.536790402301392  -11.314831728534896  22.763922556618756  23.801346535951506  21.51614529709059  120.000000
4.0215  0.000000  0.000000  0.000000  -34.671877452481624  -4.2301586150574115  19.06794626578273  50.20271530153606  -25.127182375434618  -5.768652370198138  -11.589760207270091  22.933586374061523  24.42508596539315  21.89029219265828  120.000000
4.07895  0.000000  0.000000  0.000000  -34.72241884695085  -4.147256874212277  18.304503136277077  50.61430938389175  -24.72316411463097  -4.880833501211994  -11.974498217700466  23.310974857889672  25.182803107292944  22.252535610533553  120.000000
4.1364  0.000000  0.000000  0.000000  -34.75931791642344  -4.126178062873805  17.353578732437487  51.064145669814486  -24.266413743561852  -3.8647807515272294  -12.427566464330468  23.955734507315  26.019439530641286  22.590691127096562  120.000000
4.19385  0.000000  0.000000  0.000000  -34.7757748108412  -4.185589280999766  16.194294662843898  51.559010873463386  -23.75837568573658  -2.705584931438744  -12.868264306751325  24.909566206741566  26.817125973290985  22.886578842112247  120.000000
4.2513000000000005  0.000000  0.000000  0.000000  -34.769373108959606  -4.336343052022227  14.81830546396348  52.11413755366288  -23.197222366914843  -1.3846732906327148  -13.192032871180313  26.19158166802602  27.415394291231955  23.119106997926036  120.000000
4.30875  0.000000  0.000000  0.000000  -34.74982544176599  -4.5727881374342125  13.234298078643782  52.75453478402711  -22.570530712658705  0.11830542922710237  -13.300122690373176  27.798910432640103  27.65359185008266  23.271678102150297  120.000000
4.3662  0.000000  0.000000  0.000000  -34.7398117299342  -4.863557020505008  11.473620470745606  53.51659090525593  -21.85019116340355  1.823469124743831  -13.127006289740097  29.707882274278305  27.41110769560277  23.344206377061834  120.000000
4.42365  0.000000  0.000000  0.000000  -34.772495243336294  -5.142559104179709  9.59448300914065  54.44009641295005  -20.99312975591645  3.744325052143692  -12.658661355181396  31.87629253842169  26.635335787749096  23.361158738222624  120.000000
4.4811  0.000000  0.000000  0.000000  -34.910540352705816  -5.3045497508516934  7.67536218561218  55.55979102164749  -19.95183373870772  5.882442762183975  -11.907446413084942  34.24953271472505  25.319754485142553  23.37098716799509  120.000000
4.53855  0.000000  0.000000  0.000000  -35.25100178494907  -5.224976693269628  5.8013482391844775  56.89305338405095  -18.67047976985063  8.217999471778253  -10.877916734120081  36.75373312932238  23.47218029731213  23.43317343513563  120.000000
4.596  0.000000  0.000000  0.000000  -35.866561779340785  -4.789390625105939  4.062004248098  58.433737057125  -17.079188800788582  10.698410755903978  -9.586160595912151  39.282829683382495  21.123589898072076  23.5945065753973  120.000000
4.65345  0.000000  0.000000  0.000000  -36.736377964595775  -3.9045529205754526  2.55744623722711  60.148777117457655  -15.116011813870632  13.243966211170374  -8.104441309890671  41.71229827878172  18.350299514008253  23.860312248528235  120.000000
4.7109000000000005  0.000000  0.000000  0.000000  -37.74244905750133  -2.5211474228780424  1.3836645641203922  61.95267816510211  -12.74510422531037  15.748353807233384  -6.578903510859671  43.917717045947384  15.280761572025853  24.174748528521413  120.000000
4.76835  0.000000  0.000000  0.000000  -38.747213960691894  -0.663993250701544  0.5986429921418602  63.70363283017434  -9.96858409115527  18.08592683287027  -5.187149500524969  45.78865243546285  12.064903588518353  24.44571478697329  120.000000
4.8258  0.000000  0.000000  0.000000  -39.66442091621998  1.5702737547984977  0.21475070302967458  65.25489068084397  -6.8333137654308  20.159987102834595  -4.045740528383691  47.24733468743517  8.816164083373739  24.59000258497593  120.000000
